# This file uses centimeters as units for non-parametric coordinates.

mtllib cilinder.mtl
g default
v 10.012148 0.599901 0.000000
v 9.837162 1.176749 -0.000000
v 9.553003 1.708375 -0.000000
v 9.170587 2.174350 -0.000000
v 8.704614 2.556766 0.000000
v 8.172987 2.840926 -0.000000
v 7.596142 3.015912 0.000000
v 6.996237 3.074997 0.000000
v 6.396335 3.015912 0.000000
v 5.819486 2.840927 -0.000000
v 5.287861 2.556767 0.000000
v 4.821886 2.174352 0.000000
v 4.439470 1.708378 0.000000
v 4.155309 1.176752 -0.000000
v 3.980324 0.599903 -0.000000
v 3.921238 0.000001 0.000000
v 3.980324 -0.599901 -0.000001
v 4.155308 -1.176750 0.000000
v 4.439468 -1.708377 0.000000
v 4.821882 -2.174352 -0.000001
v 5.287857 -2.556767 0.000000
v 5.819486 -2.840928 -0.000000
v 6.396333 -3.015913 -0.000000
v 6.996237 -3.074999 -0.000001
v 7.596138 -3.015914 -0.000000
v 8.172987 -2.840929 -0.000000
v 8.704614 -2.556769 0.000000
v 9.170591 -2.174353 0.000000
v 9.553005 -1.708379 -0.000001
v 9.837166 -1.176751 -0.000001
v 10.012151 -0.599903 0.000000
v 10.071237 0.000000 0.000000
v 10.012148 0.599901 27.000000
v 9.837162 1.176749 27.000000
v 9.553003 1.708375 27.000000
v 9.170587 2.174350 27.000000
v 8.704614 2.556766 27.000000
v 8.172987 2.840926 27.000000
v 7.596142 3.015912 27.000000
v 6.996237 3.074997 27.000000
v 6.396335 3.015912 27.000002
v 5.819486 2.840928 27.000000
v 5.287861 2.556767 27.000002
v 4.821886 2.174352 27.000000
v 4.439470 1.708378 27.000000
v 4.155309 1.176752 27.000000
v 3.980324 0.599903 27.000000
v 3.921238 0.000001 27.000000
v 3.980324 -0.599901 26.999998
v 4.155308 -1.176750 27.000000
v 4.439468 -1.708377 27.000002
v 4.821882 -2.174352 26.999998
v 5.287857 -2.556767 27.000000
v 5.819486 -2.840928 27.000002
v 6.396333 -3.015913 27.000000
v 6.996237 -3.074999 27.000000
v 7.596138 -3.015914 27.000000
v 8.172987 -2.840929 27.000000
v 8.704614 -2.556769 27.000000
v 9.170591 -2.174353 27.000000
v 9.553005 -1.708379 27.000000
v 9.837166 -1.176751 27.000000
v 10.012151 -0.599903 27.000004
v 10.071237 0.000000 27.000000
v 11.964273 0.988208 -0.000000
v 11.676025 1.938429 0.000000
v 11.676025 1.938429 27.000000
v 11.964273 0.988208 27.000000
v 11.207935 2.814164 0.000000
v 11.207935 2.814164 27.000000
v 10.577993 3.581753 0.000000
v 10.577993 3.581753 27.000000
v 9.810405 4.211697 0.000000
v 9.810405 4.211697 27.000000
v 8.934669 4.679787 0.000000
v 8.934669 4.679787 27.000000
v 7.984443 4.968036 0.000000
v 7.984443 4.968036 27.000000
v 6.996238 5.065366 -0.000000
v 6.996238 5.065366 27.000000
v 6.008034 4.968038 0.000000
v 6.008034 4.968038 27.000000
v 5.057806 4.679790 0.000000
v 5.057806 4.679790 27.000000
v 4.182071 4.211700 0.000000
v 4.182071 4.211699 27.000000
v 3.414484 3.581757 0.000000
v 3.414484 3.581757 27.000000
v 2.784540 2.814169 -0.000000
v 2.784540 2.814169 27.000000
v 2.316448 1.938434 -0.000000
v 2.316448 1.938434 27.000000
v 2.028200 0.988206 -0.000000
v 2.028200 0.988206 27.000000
v 1.930868 0.000002 0.000000
v 1.930868 0.000002 27.000000
v 2.028196 -0.988202 -0.000000
v 2.028196 -0.988202 27.000002
v 2.316446 -1.938431 -0.000000
v 2.316446 -1.938431 27.000002
v 2.784536 -2.814166 -0.000001
v 2.784536 -2.814166 27.000000
v 3.414480 -3.581755 -0.000001
v 3.414480 -3.581755 27.000000
v 4.182068 -4.211699 0.000000
v 4.182068 -4.211699 27.000000
v 5.057804 -4.679790 -0.000000
v 5.057804 -4.679790 27.000000
v 6.008032 -4.968039 -0.000000
v 6.008032 -4.968039 27.000000
v 6.996235 -5.065368 0.000000
v 6.996235 -5.065368 27.000000
v 7.984440 -4.968040 0.000000
v 7.984440 -4.968039 27.000000
v 8.934669 -4.679790 0.000000
v 8.934669 -4.679790 27.000000
v 9.810404 -4.211701 -0.000000
v 9.810404 -4.211701 27.000000
v 10.577993 -3.581758 0.000000
v 10.577993 -3.581758 27.000000
v 11.207937 -2.814168 -0.000000
v 11.207937 -2.814168 27.000000
v 11.676027 -1.938433 -0.000000
v 11.676027 -1.938433 27.000000
v 11.964277 -0.988205 0.000000
v 11.964277 -0.988205 27.000000
v 12.061605 0.000006 0.000000
v 12.061605 0.000006 27.000000
vt 0.375000 0.312500
vt 0.382812 0.312500
vt 0.390625 0.312500
vt 0.398438 0.312500
vt 0.406250 0.312500
vt 0.414062 0.312500
vt 0.421875 0.312500
vt 0.429688 0.312500
vt 0.437500 0.312500
vt 0.445312 0.312500
vt 0.453125 0.312500
vt 0.460938 0.312500
vt 0.468750 0.312500
vt 0.476562 0.312500
vt 0.484375 0.312500
vt 0.492188 0.312500
vt 0.500000 0.312500
vt 0.507812 0.312500
vt 0.515625 0.312500
vt 0.523438 0.312500
vt 0.531250 0.312500
vt 0.539062 0.312500
vt 0.546875 0.312500
vt 0.554688 0.312500
vt 0.562500 0.312500
vt 0.570312 0.312500
vt 0.578125 0.312500
vt 0.585938 0.312500
vt 0.593750 0.312500
vt 0.601562 0.312500
vt 0.609375 0.312500
vt 0.617188 0.312500
vt 0.625000 0.312500
vt 0.375000 0.687500
vt 0.382812 0.687500
vt 0.390625 0.687500
vt 0.398438 0.687500
vt 0.406250 0.687500
vt 0.414062 0.687500
vt 0.421875 0.687500
vt 0.429688 0.687500
vt 0.437500 0.687500
vt 0.445312 0.687500
vt 0.453125 0.687500
vt 0.460938 0.687500
vt 0.468750 0.687500
vt 0.476562 0.687500
vt 0.484375 0.687500
vt 0.492188 0.687500
vt 0.500000 0.687500
vt 0.507812 0.687500
vt 0.515625 0.687500
vt 0.523438 0.687500
vt 0.531250 0.687500
vt 0.539062 0.687500
vt 0.546875 0.687500
vt 0.554688 0.687500
vt 0.562500 0.687500
vt 0.570312 0.687500
vt 0.578125 0.687500
vt 0.585938 0.687500
vt 0.593750 0.687500
vt 0.601562 0.687500
vt 0.609375 0.687500
vt 0.617188 0.687500
vt 0.625000 0.687500
vt 0.375000 0.312500
vt 0.382812 0.312500
vt 0.382812 0.687500
vt 0.375000 0.687500
vt 0.390625 0.312500
vt 0.390625 0.687500
vt 0.398438 0.312500
vt 0.398438 0.687500
vt 0.406250 0.312500
vt 0.406250 0.687500
vt 0.414062 0.312500
vt 0.414062 0.687500
vt 0.421875 0.312500
vt 0.421875 0.687500
vt 0.429688 0.312500
vt 0.429688 0.687500
vt 0.437500 0.312500
vt 0.437500 0.687500
vt 0.445312 0.312500
vt 0.445312 0.687500
vt 0.453125 0.312500
vt 0.453125 0.687500
vt 0.460938 0.312500
vt 0.460938 0.687500
vt 0.468750 0.312500
vt 0.468750 0.687500
vt 0.476562 0.312500
vt 0.476562 0.687500
vt 0.484375 0.312500
vt 0.484375 0.687500
vt 0.492188 0.312500
vt 0.492188 0.687500
vt 0.500000 0.312500
vt 0.500000 0.687500
vt 0.507812 0.312500
vt 0.507812 0.687500
vt 0.515625 0.312500
vt 0.515625 0.687500
vt 0.523438 0.312500
vt 0.523438 0.687500
vt 0.531250 0.312500
vt 0.531250 0.687500
vt 0.539062 0.312500
vt 0.539062 0.687500
vt 0.546875 0.312500
vt 0.546875 0.687500
vt 0.554688 0.312500
vt 0.554688 0.687500
vt 0.562500 0.312500
vt 0.562500 0.687500
vt 0.570312 0.312500
vt 0.570312 0.687500
vt 0.578125 0.312500
vt 0.578125 0.687500
vt 0.585938 0.312500
vt 0.585938 0.687500
vt 0.593750 0.312500
vt 0.593750 0.687500
vt 0.601562 0.312500
vt 0.601562 0.687500
vt 0.609375 0.312500
vt 0.609375 0.687500
vt 0.617188 0.312500
vt 0.617188 0.687500
vt 0.625000 0.312500
vt 0.625000 0.687500
vn 0.980785 0.195093 -0.000000
vn 0.923879 0.382685 0.000000
vn 0.923879 0.382685 0.000000
vn 0.980785 0.195093 -0.000000
vn 0.831470 0.555569 0.000000
vn 0.831470 0.555569 0.000000
vn 0.707108 0.707106 0.000000
vn 0.707108 0.707106 0.000000
vn 0.555570 0.831470 0.000000
vn 0.555570 0.831470 0.000000
vn 0.382684 0.923879 0.000000
vn 0.382684 0.923879 0.000000
vn 0.195091 0.980785 0.000000
vn 0.195091 0.980785 0.000000
vn 0.000001 1.000000 0.000000
vn 0.000001 1.000000 0.000000
vn -0.195089 0.980785 0.000000
vn -0.195090 0.980785 0.000000
vn -0.382683 0.923880 0.000000
vn -0.382683 0.923880 0.000000
vn -0.555570 0.831470 0.000000
vn -0.555570 0.831470 0.000000
vn -0.707107 0.707107 0.000000
vn -0.707107 0.707107 0.000000
vn -0.831469 0.555571 0.000000
vn -0.831469 0.555571 0.000000
vn -0.923879 0.382684 -0.000000
vn -0.923879 0.382684 -0.000000
vn -0.980785 0.195091 -0.000000
vn -0.980785 0.195091 -0.000000
vn -1.000000 0.000001 -0.000000
vn -1.000000 0.000001 -0.000000
vn -0.980785 -0.195090 0.000000
vn -0.980785 -0.195090 0.000000
vn -0.923880 -0.382683 0.000000
vn -0.923880 -0.382683 0.000000
vn -0.831470 -0.555570 0.000000
vn -0.831470 -0.555570 0.000000
vn -0.707107 -0.707106 0.000000
vn -0.707107 -0.707106 0.000000
vn -0.555570 -0.831470 0.000000
vn -0.555570 -0.831470 0.000000
vn -0.382684 -0.923879 0.000000
vn -0.382684 -0.923879 0.000000
vn -0.195091 -0.980785 0.000000
vn -0.195091 -0.980785 0.000000
vn -0.000000 -1.000000 0.000000
vn -0.000000 -1.000000 0.000000
vn 0.195090 -0.980785 0.000000
vn 0.195090 -0.980785 0.000000
vn 0.382683 -0.923880 0.000000
vn 0.382683 -0.923880 0.000000
vn 0.555570 -0.831470 0.000000
vn 0.555570 -0.831470 0.000000
vn 0.707107 -0.707107 0.000000
vn 0.707107 -0.707107 0.000000
vn 0.831470 -0.555570 0.000000
vn 0.831470 -0.555570 0.000000
vn 0.923879 -0.382684 0.000000
vn 0.923879 -0.382684 0.000000
vn 0.980785 -0.195090 0.000000
vn 0.980785 -0.195090 0.000000
vn 1.000000 0.000002 -0.000000
vn 1.000000 0.000002 -0.000000
vn -0.000000 -0.000000 -1.000000
vn 0.000000 0.000000 -1.000000
vn 0.000000 0.000000 -1.000000
vn -0.000000 -0.000000 -1.000000
vn 0.000000 0.000000 1.000000
vn -0.000000 0.000000 1.000000
vn -0.000000 0.000000 1.000000
vn -0.000000 0.000000 1.000000
vn 0.000000 0.000000 -1.000000
vn 0.000000 0.000000 -1.000000
vn 0.000001 0.000000 1.000000
vn 0.000001 0.000000 1.000000
vn 0.000000 0.000000 -1.000000
vn 0.000000 0.000000 -1.000000
vn 0.000000 0.000000 1.000000
vn 0.000000 0.000000 1.000000
vn 0.000000 0.000000 -1.000000
vn 0.000000 0.000000 -1.000000
vn 0.000000 0.000000 1.000000
vn 0.000000 0.000000 1.000000
vn -0.000000 0.000000 -1.000000
vn -0.000000 0.000000 -1.000000
vn 0.000000 0.000000 1.000000
vn 0.000000 0.000000 1.000000
vn 0.000000 0.000000 -1.000000
vn 0.000000 0.000000 -1.000000
vn 0.000000 0.000000 1.000000
vn 0.000000 0.000000 1.000000
vn 0.000000 -0.000000 -1.000000
vn 0.000000 -0.000000 -1.000000
vn 0.000000 0.000000 1.000000
vn 0.000000 0.000000 1.000000
vn -0.000000 0.000000 -1.000000
vn -0.000000 0.000000 -1.000000
vn -0.000001 0.000000 1.000000
vn -0.000001 0.000000 1.000000
vn 0.000000 0.000000 -1.000000
vn 0.000000 0.000000 -1.000000
vn -0.000001 0.000001 1.000000
vn -0.000001 0.000001 1.000000
vn -0.000000 0.000000 -1.000000
vn -0.000000 0.000000 -1.000000
vn -0.000001 0.000000 1.000000
vn -0.000001 0.000000 1.000000
vn 0.000000 0.000000 -1.000000
vn 0.000000 0.000000 -1.000000
vn -0.000001 -0.000000 1.000000
vn -0.000001 -0.000000 1.000000
vn 0.000000 0.000000 -1.000000
vn 0.000000 0.000000 -1.000000
vn -0.000000 0.000000 1.000000
vn -0.000000 0.000000 1.000000
vn 0.000000 0.000000 -1.000000
vn 0.000000 0.000000 -1.000000
vn -0.000001 0.000000 1.000000
vn -0.000001 0.000000 1.000000
vn -0.000000 -0.000000 -1.000000
vn -0.000000 -0.000000 -1.000000
vn -0.000000 0.000000 1.000000
vn -0.000000 0.000000 1.000000
vn -0.000000 0.000000 -1.000000
vn -0.000000 0.000000 -1.000000
vn -0.000000 0.000000 1.000000
vn -0.000000 0.000000 1.000000
vn -0.000000 0.000000 -1.000000
vn -0.000000 0.000000 -1.000000
vn 0.000001 0.000001 1.000000
vn 0.000001 0.000001 1.000000
vn 0.000000 -0.000000 -1.000000
vn 0.000000 -0.000000 -1.000000
vn 0.000000 0.000001 1.000000
vn 0.000000 0.000001 1.000000
vn 0.000000 0.000000 -1.000000
vn 0.000000 0.000000 -1.000000
vn -0.000001 -0.000001 1.000000
vn -0.000001 -0.000001 1.000000
vn 0.000000 -0.000000 -1.000000
vn 0.000000 -0.000000 -1.000000
vn -0.000001 -0.000000 1.000000
vn -0.000001 -0.000000 1.000000
vn 0.000000 -0.000000 -1.000000
vn 0.000000 -0.000000 -1.000000
vn -0.000001 0.000001 1.000000
vn -0.000001 0.000001 1.000000
vn -0.000000 0.000000 -1.000000
vn -0.000000 0.000000 -1.000000
vn 0.000000 -0.000000 1.000000
vn 0.000000 -0.000000 1.000000
vn 0.000000 -0.000000 -1.000000
vn 0.000000 -0.000000 -1.000000
vn 0.000000 -0.000000 1.000000
vn 0.000000 -0.000000 1.000000
vn 0.000000 -0.000000 -1.000000
vn 0.000000 -0.000000 -1.000000
vn -0.000001 0.000000 1.000000
vn -0.000001 0.000000 1.000000
vn 0.000000 -0.000000 -1.000000
vn 0.000000 -0.000000 -1.000000
vn -0.000001 0.000000 1.000000
vn -0.000001 0.000000 1.000000
vn 0.000000 -0.000000 -1.000000
vn 0.000000 -0.000000 -1.000000
vn 0.000000 0.000000 1.000000
vn 0.000000 0.000000 1.000000
vn 0.000000 0.000000 -1.000000
vn 0.000000 0.000000 -1.000000
vn 0.000001 0.000000 1.000000
vn 0.000001 0.000000 1.000000
vn -0.000000 -0.000000 -1.000000
vn -0.000000 -0.000000 -1.000000
vn -0.000000 0.000000 1.000000
vn 0.000000 0.000000 1.000000
vn -0.000000 -0.000000 -1.000000
vn -0.000000 -0.000000 -1.000000
vn -0.000001 0.000000 1.000000
vn -0.000001 0.000000 1.000000
vn 0.000000 0.000000 -1.000000
vn 0.000000 0.000000 -1.000000
vn 0.000001 -0.000001 1.000000
vn 0.000001 -0.000001 1.000000
vn 0.000000 0.000000 -1.000000
vn 0.000000 0.000000 -1.000000
vn 0.000002 -0.000000 1.000000
vn 0.000002 -0.000000 1.000000
vn -0.000000 -0.000000 -1.000000
vn -0.000000 -0.000000 -1.000000
vn 0.000001 0.000001 1.000000
vn 0.000001 0.000001 1.000000
vn -0.956940 -0.290286 0.000000
vn -0.956940 -0.290286 0.000000
vn -0.956940 -0.290286 0.000000
vn -0.956940 -0.290286 0.000000
vn -0.995184 -0.098027 0.000000
vn -0.995184 -0.098027 0.000000
vn -0.995184 -0.098027 0.000000
vn -0.995184 -0.098027 0.000000
vn -0.995185 0.098019 0.000000
vn -0.995185 0.098019 0.000000
vn -0.995185 0.098019 0.000000
vn -0.995185 0.098019 0.000000
vn -0.956940 0.290285 -0.000000
vn -0.956940 0.290285 -0.000000
vn -0.956940 0.290285 -0.000000
vn -0.956940 0.290285 -0.000000
vn -0.881921 0.471398 0.000000
vn -0.881921 0.471398 0.000000
vn -0.881921 0.471398 0.000000
vn -0.881921 0.471398 0.000000
vn -0.773013 0.634390 0.000000
vn -0.773013 0.634390 0.000000
vn -0.773013 0.634390 0.000000
vn -0.773013 0.634390 0.000000
vn -0.634390 0.773013 0.000000
vn -0.634390 0.773013 0.000000
vn -0.634390 0.773013 0.000000
vn -0.634390 0.773013 0.000000
vn -0.471396 0.881922 0.000000
vn -0.471396 0.881922 0.000000
vn -0.471396 0.881922 0.000000
vn -0.471396 0.881922 0.000000
vn -0.290285 0.956940 0.000000
vn -0.290285 0.956940 0.000000
vn -0.290285 0.956940 0.000000
vn -0.290285 0.956940 0.000000
vn -0.098016 0.995185 0.000000
vn -0.098016 0.995185 0.000000
vn -0.098016 0.995185 0.000000
vn -0.098016 0.995185 0.000000
vn 0.098017 0.995185 0.000000
vn 0.098017 0.995185 0.000000
vn 0.098017 0.995185 0.000000
vn 0.098017 0.995185 0.000000
vn 0.290285 0.956940 0.000000
vn 0.290285 0.956940 0.000000
vn 0.290285 0.956940 0.000000
vn 0.290285 0.956940 0.000000
vn 0.471395 0.881922 0.000000
vn 0.471395 0.881922 0.000000
vn 0.471395 0.881922 0.000000
vn 0.471395 0.881922 0.000000
vn 0.634394 0.773010 0.000000
vn 0.634394 0.773010 0.000000
vn 0.634394 0.773010 0.000000
vn 0.634394 0.773010 0.000000
vn 0.773011 0.634392 0.000000
vn 0.773011 0.634392 0.000000
vn 0.773011 0.634392 0.000000
vn 0.773011 0.634392 0.000000
vn 0.881922 0.471395 0.000000
vn 0.881922 0.471395 0.000000
vn 0.881922 0.471395 0.000000
vn 0.881922 0.471395 0.000000
vn 0.956940 0.290285 0.000000
vn 0.956940 0.290285 0.000000
vn 0.956940 0.290285 0.000000
vn 0.956940 0.290285 0.000000
vn 0.995185 0.098016 -0.000000
vn 0.995185 0.098016 -0.000000
vn 0.995185 0.098016 -0.000000
vn 0.995185 0.098016 -0.000000
vn 0.995185 -0.098016 0.000000
vn 0.995185 -0.098016 0.000000
vn 0.995185 -0.098016 0.000000
vn 0.995185 -0.098016 0.000000
vn 0.956940 -0.290285 0.000000
vn 0.956940 -0.290285 0.000000
vn 0.956940 -0.290285 0.000000
vn 0.956940 -0.290285 0.000000
vn 0.881920 -0.471398 0.000000
vn 0.881920 -0.471399 0.000000
vn 0.881920 -0.471399 0.000000
vn 0.881920 -0.471399 0.000000
vn 0.773011 -0.634393 0.000000
vn 0.773011 -0.634393 0.000000
vn 0.773011 -0.634393 0.000000
vn 0.773011 -0.634393 0.000000
vn 0.634391 -0.773012 0.000000
vn 0.634391 -0.773012 0.000000
vn 0.634391 -0.773012 0.000000
vn 0.634391 -0.773012 0.000000
vn 0.471397 -0.881921 0.000000
vn 0.471397 -0.881921 0.000000
vn 0.471397 -0.881921 0.000000
vn 0.471397 -0.881921 0.000000
vn 0.290283 -0.956941 0.000000
vn 0.290283 -0.956941 0.000000
vn 0.290283 -0.956941 0.000000
vn 0.290283 -0.956941 0.000000
vn 0.098017 -0.995185 0.000000
vn 0.098017 -0.995185 0.000000
vn 0.098017 -0.995185 0.000000
vn 0.098017 -0.995185 0.000000
vn -0.098017 -0.995185 0.000000
vn -0.098017 -0.995185 0.000000
vn -0.098017 -0.995185 0.000000
vn -0.098017 -0.995185 0.000000
vn -0.290287 -0.956940 0.000000
vn -0.290287 -0.956940 0.000000
vn -0.290287 -0.956940 0.000000
vn -0.290287 -0.956940 0.000000
vn -0.471396 -0.881922 0.000000
vn -0.471396 -0.881922 0.000000
vn -0.471396 -0.881922 0.000000
vn -0.471396 -0.881922 0.000000
vn -0.634394 -0.773010 0.000000
vn -0.634394 -0.773010 0.000000
vn -0.634394 -0.773010 0.000000
vn -0.634394 -0.773010 0.000000
vn -0.773011 -0.634392 0.000000
vn -0.773011 -0.634392 0.000000
vn -0.773011 -0.634392 0.000000
vn -0.773011 -0.634392 0.000000
vn -0.881922 -0.471395 0.000000
vn -0.881922 -0.471395 0.000000
vn -0.881922 -0.471395 0.000000
vn -0.881922 -0.471395 0.000000
s 1
g pCylinder39 group49
usemtl initialShadingGroup
f 65/67/1 66/68/2 67/69/3 68/70/4
f 66/68/2 69/71/5 70/72/6 67/69/3
f 69/71/5 71/73/7 72/74/8 70/72/6
f 71/73/7 73/75/9 74/76/10 72/74/8
f 73/75/9 75/77/11 76/78/12 74/76/10
f 75/77/11 77/79/13 78/80/14 76/78/12
f 77/79/13 79/81/15 80/82/16 78/80/14
f 79/81/15 81/83/17 82/84/18 80/82/16
f 81/83/17 83/85/19 84/86/20 82/84/18
f 83/85/19 85/87/21 86/88/22 84/86/20
f 85/87/21 87/89/23 88/90/24 86/88/22
f 87/89/23 89/91/25 90/92/26 88/90/24
f 89/91/25 91/93/27 92/94/28 90/92/26
f 91/93/27 93/95/29 94/96/30 92/94/28
f 93/95/29 95/97/31 96/98/32 94/96/30
f 95/97/31 97/99/33 98/100/34 96/98/32
f 97/99/33 99/101/35 100/102/36 98/100/34
f 99/101/35 101/103/37 102/104/38 100/102/36
f 101/103/37 103/105/39 104/106/40 102/104/38
f 103/105/39 105/107/41 106/108/42 104/106/40
f 105/107/41 107/109/43 108/110/44 106/108/42
f 107/109/43 109/111/45 110/112/46 108/110/44
f 109/111/45 111/113/47 112/114/48 110/112/46
f 111/113/47 113/115/49 114/116/50 112/114/48
f 113/115/49 115/117/51 116/118/52 114/116/50
f 115/117/51 117/119/53 118/120/54 116/118/52
f 117/119/53 119/121/55 120/122/56 118/120/54
f 119/121/55 121/123/57 122/124/58 120/122/56
f 121/123/57 123/125/59 124/126/60 122/124/58
f 123/125/59 125/127/61 126/128/62 124/126/60
f 125/127/61 127/129/63 128/130/64 126/128/62
f 127/129/63 65/131/1 68/132/4 128/130/64
s 2
f 1/1/65 2/2/66 66/68/67 65/67/68
s 3
f 34/35/69 33/34/70 68/70/71 67/69/72
s 2
f 2/2/66 3/3/73 69/71/74 66/68/67
s 3
f 35/36/75 34/35/69 67/69/72 70/72/76
s 2
f 3/3/73 4/4/77 71/73/78 69/71/74
s 3
f 36/37/79 35/36/75 70/72/76 72/74/80
s 2
f 4/4/77 5/5/81 73/75/82 71/73/78
s 3
f 37/38/83 36/37/79 72/74/80 74/76/84
s 2
f 5/5/81 6/6/85 75/77/86 73/75/82
s 3
f 38/39/87 37/38/83 74/76/84 76/78/88
s 2
f 6/6/85 7/7/89 77/79/90 75/77/86
s 3
f 39/40/91 38/39/87 76/78/88 78/80/92
s 2
f 7/7/89 8/8/93 79/81/94 77/79/90
s 3
f 40/41/95 39/40/91 78/80/92 80/82/96
s 2
f 8/8/93 9/9/97 81/83/98 79/81/94
s 3
f 41/42/99 40/41/95 80/82/96 82/84/100
s 2
f 9/9/97 10/10/101 83/85/102 81/83/98
s 3
f 42/43/103 41/42/99 82/84/100 84/86/104
s 2
f 10/10/101 11/11/105 85/87/106 83/85/102
s 3
f 43/44/107 42/43/103 84/86/104 86/88/108
s 2
f 11/11/105 12/12/109 87/89/110 85/87/106
s 3
f 44/45/111 43/44/107 86/88/108 88/90/112
s 2
f 12/12/109 13/13/113 89/91/114 87/89/110
s 3
f 45/46/115 44/45/111 88/90/112 90/92/116
s 2
f 13/13/113 14/14/117 91/93/118 89/91/114
s 3
f 46/47/119 45/46/115 90/92/116 92/94/120
s 2
f 14/14/117 15/15/121 93/95/122 91/93/118
s 3
f 47/48/123 46/47/119 92/94/120 94/96/124
s 2
f 15/15/121 16/16/125 95/97/126 93/95/122
s 3
f 48/49/127 47/48/123 94/96/124 96/98/128
s 2
f 16/16/125 17/17/129 97/99/130 95/97/126
s 3
f 49/50/131 48/49/127 96/98/128 98/100/132
s 2
f 17/17/129 18/18/133 99/101/134 97/99/130
s 3
f 50/51/135 49/50/131 98/100/132 100/102/136
s 2
f 18/18/133 19/19/137 101/103/138 99/101/134
s 3
f 51/52/139 50/51/135 100/102/136 102/104/140
s 2
f 19/19/137 20/20/141 103/105/142 101/103/138
s 3
f 52/53/143 51/52/139 102/104/140 104/106/144
s 2
f 20/20/141 21/21/145 105/107/146 103/105/142
s 3
f 53/54/147 52/53/143 104/106/144 106/108/148
s 2
f 21/21/145 22/22/149 107/109/150 105/107/146
s 3
f 54/55/151 53/54/147 106/108/148 108/110/152
s 2
f 22/22/149 23/23/153 109/111/154 107/109/150
s 3
f 55/56/155 54/55/151 108/110/152 110/112/156
s 2
f 23/23/153 24/24/157 111/113/158 109/111/154
s 3
f 56/57/159 55/56/155 110/112/156 112/114/160
s 2
f 24/24/157 25/25/161 113/115/162 111/113/158
s 3
f 57/58/163 56/57/159 112/114/160 114/116/164
s 2
f 25/25/161 26/26/165 115/117/166 113/115/162
s 3
f 58/59/167 57/58/163 114/116/164 116/118/168
s 2
f 26/26/165 27/27/169 117/119/170 115/117/166
s 3
f 59/60/171 58/59/167 116/118/168 118/120/172
s 2
f 27/27/169 28/28/173 119/121/174 117/119/170
s 3
f 60/61/175 59/60/171 118/120/172 120/122/176
s 2
f 28/28/173 29/29/177 121/123/178 119/121/174
s 3
f 61/62/179 60/61/175 120/122/176 122/124/180
s 2
f 29/29/177 30/30/181 123/125/182 121/123/178
s 3
f 62/63/183 61/62/179 122/124/180 124/126/184
s 2
f 30/30/181 31/31/185 125/127/186 123/125/182
s 3
f 63/64/187 62/63/183 124/126/184 126/128/188
s 2
f 31/31/185 32/32/189 127/129/190 125/127/186
s 3
f 64/65/191 63/64/187 126/128/188 128/130/192
s 2
f 32/32/189 1/33/65 65/131/68 127/129/190
s 3
f 33/66/70 64/65/191 128/130/192 68/132/71
s off
f 2/2/193 1/1/194 33/34/195 34/35/196
f 1/33/197 32/32/198 64/65/199 33/66/200
f 32/32/201 31/31/202 63/64/203 64/65/204
f 31/31/205 30/30/206 62/63/207 63/64/208
f 30/30/209 29/29/210 61/62/211 62/63/212
f 29/29/213 28/28/214 60/61/215 61/62/216
f 28/28/217 27/27/218 59/60/219 60/61/220
f 27/27/221 26/26/222 58/59/223 59/60/224
f 26/26/225 25/25/226 57/58/227 58/59/228
f 25/25/229 24/24/230 56/57/231 57/58/232
f 24/24/233 23/23/234 55/56/235 56/57/236
f 23/23/237 22/22/238 54/55/239 55/56/240
f 22/22/241 21/21/242 53/54/243 54/55/244
f 21/21/245 20/20/246 52/53/247 53/54/248
f 20/20/249 19/19/250 51/52/251 52/53/252
f 19/19/253 18/18/254 50/51/255 51/52/256
f 18/18/257 17/17/258 49/50/259 50/51/260
f 17/17/261 16/16/262 48/49/263 49/50/264
f 16/16/265 15/15/266 47/48/267 48/49/268
f 15/15/269 14/14/270 46/47/271 47/48/272
f 14/14/273 13/13/274 45/46/275 46/47/276
f 13/13/277 12/12/278 44/45/279 45/46/280
f 12/12/281 11/11/282 43/44/283 44/45/284
f 11/11/285 10/10/286 42/43/287 43/44/288
f 10/10/289 9/9/290 41/42/291 42/43/292
f 9/9/293 8/8/294 40/41/295 41/42/296
f 8/8/297 7/7/298 39/40/299 40/41/300
f 7/7/301 6/6/302 38/39/303 39/40/304
f 6/6/305 5/5/306 37/38/307 38/39/308
f 5/5/309 4/4/310 36/37/311 37/38/312
f 4/4/313 3/3/314 35/36/315 36/37/316
f 3/3/317 2/2/318 34/35/319 35/36/320
