# This file uses centimeters as units for non-parametric coordinates.

mtllib cilinder.mtl
g default
v 4.277532 1.390579 0.000000
v 3.638353 2.645037 0.000000
v 2.642813 3.640580 0.000000
v 1.388354 4.279757 0.000000
v -0.002227 4.500003 0.000000
v -1.392803 4.279757 0.000000
v -2.647262 3.640578 0.000000
v -3.642802 2.645037 0.000000
v -4.281979 1.390579 0.000000
v -4.502225 0.000000 0.000000
v -4.281979 -1.390574 0.000000
v -3.642802 -2.645032 0.000000
v -2.647257 -3.640578 0.000000
v -1.392803 -4.279754 0.000000
v -0.002222 -4.500000 0.000000
v 1.388352 -4.279754 0.000000
v 2.642808 -3.640578 0.000000
v 3.638351 -2.645032 0.000000
v 4.277530 -1.390574 0.000000
v 4.497776 0.000000 0.000000
v 4.277532 1.390579 25.000000
v 3.638353 2.645037 25.000000
v 2.642813 3.640580 25.000002
v 1.388354 4.279757 25.000004
v -0.002227 4.500003 25.000002
v -1.392803 4.279757 25.000004
v -2.647262 3.640578 25.000000
v -3.642802 2.645037 25.000000
v -4.281979 1.390579 25.000000
v -4.502225 0.000000 25.000002
v -4.281979 -1.390574 25.000000
v -3.642802 -2.645032 25.000000
v -2.647257 -3.640578 25.000000
v -1.392803 -4.279754 25.000000
v -0.002222 -4.500000 25.000000
v 1.388352 -4.279754 25.000000
v 2.642808 -3.640578 25.000000
v 3.638351 -2.645032 25.000000
v 4.277530 -1.390574 25.000000
v 4.497776 0.000000 25.000002
v 3.807858 1.237974 0.000000
v 3.238822 2.354764 0.000000
v 3.238822 2.354764 25.000002
v 3.807858 1.237974 25.000002
v 2.352537 3.241051 0.000000
v 2.352537 3.241051 25.000004
v 1.235750 3.810081 0.000000
v 1.235750 3.810081 25.000002
v -0.002227 4.006157 0.000000
v -0.002227 4.006157 25.000002
v -1.240196 3.810081 0.000000
v -1.240196 3.810081 25.000002
v -2.356987 3.241048 0.000000
v -2.356987 3.241048 25.000002
v -3.243274 2.354763 0.000000
v -3.243274 2.354763 25.000000
v -3.812309 1.237974 0.000000
v -3.812309 1.237974 25.000002
v -4.008384 -0.000000 0.000000
v -4.008384 -0.000000 25.000002
v -3.812309 -1.237970 0.000000
v -3.812309 -1.237970 24.999998
v -3.243274 -2.354758 0.000000
v -3.243274 -2.354758 25.000000
v -2.356982 -3.241047 0.000000
v -2.356982 -3.241047 24.999996
v -1.240196 -3.810079 0.000000
v -1.240196 -3.810079 25.000000
v -0.002222 -4.006155 0.000000
v -0.002222 -4.006155 25.000000
v 1.235745 -3.810079 0.000000
v 1.235745 -3.810079 25.000000
v 2.352534 -3.241049 0.000000
v 2.352534 -3.241049 25.000000
v 3.238820 -2.354760 0.000000
v 3.238820 -2.354760 24.999998
v 3.807856 -1.237970 0.000000
v 3.807856 -1.237970 24.999998
v 4.003930 -0.000000 0.000000
v 4.003930 -0.000000 25.000002
vt 0.375000 0.312500
vt 0.387500 0.312500
vt 0.400000 0.312500
vt 0.412500 0.312500
vt 0.425000 0.312500
vt 0.437500 0.312500
vt 0.450000 0.312500
vt 0.462500 0.312500
vt 0.475000 0.312500
vt 0.487500 0.312500
vt 0.500000 0.312500
vt 0.512500 0.312500
vt 0.525000 0.312500
vt 0.537500 0.312500
vt 0.550000 0.312500
vt 0.562500 0.312500
vt 0.575000 0.312500
vt 0.587500 0.312500
vt 0.600000 0.312500
vt 0.612500 0.312500
vt 0.625000 0.312500
vt 0.375000 0.687500
vt 0.387500 0.687500
vt 0.400000 0.687500
vt 0.412500 0.687500
vt 0.425000 0.687500
vt 0.437500 0.687500
vt 0.450000 0.687500
vt 0.462500 0.687500
vt 0.475000 0.687500
vt 0.487500 0.687500
vt 0.500000 0.687500
vt 0.512500 0.687500
vt 0.525000 0.687500
vt 0.537500 0.687500
vt 0.550000 0.687500
vt 0.562500 0.687500
vt 0.575000 0.687500
vt 0.587500 0.687500
vt 0.600000 0.687500
vt 0.612500 0.687500
vt 0.625000 0.687500
vt 0.375000 0.312500
vt 0.387500 0.312500
vt 0.387500 0.687500
vt 0.375000 0.687500
vt 0.400000 0.312500
vt 0.400000 0.687500
vt 0.412500 0.312500
vt 0.412500 0.687500
vt 0.425000 0.312500
vt 0.425000 0.687500
vt 0.437500 0.312500
vt 0.437500 0.687500
vt 0.450000 0.312500
vt 0.450000 0.687500
vt 0.462500 0.312500
vt 0.462500 0.687500
vt 0.475000 0.312500
vt 0.475000 0.687500
vt 0.487500 0.312500
vt 0.487500 0.687500
vt 0.500000 0.312500
vt 0.500000 0.687500
vt 0.512500 0.312500
vt 0.512500 0.687500
vt 0.525000 0.312500
vt 0.525000 0.687500
vt 0.537500 0.312500
vt 0.537500 0.687500
vt 0.550000 0.312500
vt 0.550000 0.687500
vt 0.562500 0.312500
vt 0.562500 0.687500
vt 0.575000 0.312500
vt 0.575000 0.687500
vt 0.587500 0.312500
vt 0.587500 0.687500
vt 0.600000 0.312500
vt 0.600000 0.687500
vt 0.612500 0.312500
vt 0.612500 0.687500
vt 0.625000 0.312500
vt 0.625000 0.687500
vt 0.375000 0.312500
vt 0.387500 0.312500
vt 0.387500 0.687500
vt 0.375000 0.687500
vt 0.400000 0.312500
vt 0.400000 0.687500
vt 0.412500 0.312500
vt 0.412500 0.687500
vt 0.425000 0.312500
vt 0.425000 0.687500
vt 0.437500 0.312500
vt 0.437500 0.687500
vt 0.450000 0.312500
vt 0.450000 0.687500
vt 0.462500 0.312500
vt 0.462500 0.687500
vt 0.475000 0.312500
vt 0.475000 0.687500
vt 0.487500 0.312500
vt 0.487500 0.687500
vt 0.500000 0.312500
vt 0.500000 0.687500
vt 0.512500 0.312500
vt 0.512500 0.687500
vt 0.525000 0.312500
vt 0.525000 0.687500
vt 0.537500 0.312500
vt 0.537500 0.687500
vt 0.550000 0.312500
vt 0.550000 0.687500
vt 0.562500 0.312500
vt 0.562500 0.687500
vt 0.575000 0.312500
vt 0.575000 0.687500
vt 0.587500 0.312500
vt 0.587500 0.687500
vt 0.600000 0.312500
vt 0.600000 0.687500
vt 0.612500 0.312500
vt 0.612500 0.687500
vt 0.625000 0.312500
vt 0.625000 0.687500
vn -0.951057 -0.309016 0.000000
vn -0.951057 -0.309016 0.000000
vn -0.809017 -0.587785 0.000000
vn -0.809017 -0.587785 0.000000
vn -0.587785 -0.809017 0.000000
vn -0.587785 -0.809017 0.000000
vn -0.309016 -0.951057 0.000000
vn -0.309016 -0.951057 0.000000
vn 0.000000 -1.000000 0.000000
vn 0.000000 -1.000000 0.000000
vn 0.309017 -0.951056 0.000000
vn 0.309017 -0.951056 0.000000
vn 0.587785 -0.809017 0.000000
vn 0.587785 -0.809017 0.000000
vn 0.809016 -0.587786 0.000000
vn 0.809016 -0.587786 0.000000
vn 0.951056 -0.309017 0.000000
vn 0.951056 -0.309017 0.000000
vn 1.000000 -0.000000 0.000000
vn 1.000000 0.000000 0.000000
vn 0.951056 0.309018 0.000000
vn 0.951056 0.309018 0.000000
vn 0.809016 0.587787 0.000000
vn 0.809016 0.587787 0.000000
vn 0.587785 0.809017 0.000000
vn 0.587785 0.809017 0.000000
vn 0.309017 0.951057 0.000000
vn 0.309017 0.951056 0.000000
vn 0.000000 1.000000 0.000000
vn 0.000000 1.000000 0.000000
vn -0.309017 0.951057 0.000000
vn -0.309017 0.951057 0.000000
vn -0.587785 0.809017 0.000000
vn -0.587785 0.809017 0.000000
vn -0.809017 0.587785 0.000000
vn -0.809017 0.587785 0.000000
vn -0.951056 0.309017 0.000000
vn -0.951056 0.309018 0.000000
vn -1.000000 0.000001 0.000000
vn -1.000000 0.000001 0.000000
vn 0.951057 0.309016 0.000000
vn 0.809017 0.587785 0.000000
vn 0.809017 0.587785 0.000000
vn 0.951057 0.309016 0.000000
vn 0.587785 0.809017 0.000000
vn 0.587785 0.809017 0.000000
vn 0.309016 0.951057 0.000000
vn 0.309016 0.951057 0.000000
vn 0.000000 1.000000 0.000000
vn 0.000000 1.000000 0.000000
vn -0.309017 0.951056 0.000000
vn -0.309017 0.951056 0.000000
vn -0.587785 0.809017 0.000000
vn -0.587785 0.809017 0.000000
vn -0.809018 0.587785 0.000000
vn -0.809018 0.587785 0.000000
vn -0.951057 0.309016 0.000000
vn -0.951057 0.309016 0.000000
vn -1.000000 0.000000 0.000000
vn -1.000000 0.000000 0.000000
vn -0.951057 -0.309017 0.000000
vn -0.951057 -0.309017 0.000000
vn -0.809017 -0.587785 0.000000
vn -0.809017 -0.587785 0.000000
vn -0.587786 -0.809017 0.000000
vn -0.587786 -0.809017 0.000000
vn -0.309017 -0.951057 0.000000
vn -0.309017 -0.951057 0.000000
vn 0.000000 -1.000000 0.000000
vn 0.000000 -1.000000 0.000000
vn 0.309017 -0.951057 0.000000
vn 0.309017 -0.951057 0.000000
vn 0.587786 -0.809017 0.000000
vn 0.587786 -0.809017 0.000000
vn 0.809017 -0.587785 0.000000
vn 0.809017 -0.587785 0.000000
vn 0.951056 -0.309018 0.000000
vn 0.951056 -0.309017 0.000000
vn 1.000000 -0.000001 0.000000
vn 1.000000 -0.000001 0.000000
vn 0.000000 0.000000 -1.000000
vn 0.000000 0.000000 -1.000000
vn 0.000000 0.000000 -1.000000
vn 0.000000 0.000000 -1.000000
vn 0.000004 0.000002 1.000000
vn 0.000004 0.000002 1.000000
vn 0.000003 0.000001 1.000000
vn 0.000003 0.000001 1.000000
vn 0.000000 0.000000 -1.000000
vn 0.000000 0.000000 -1.000000
vn 0.000004 0.000001 1.000000
vn 0.000004 0.000001 1.000000
vn 0.000000 0.000000 -1.000000
vn 0.000000 0.000000 -1.000000
vn -0.000001 -0.000001 1.000000
vn -0.000001 -0.000001 1.000000
vn 0.000000 0.000000 -1.000000
vn 0.000000 0.000000 -1.000000
vn -0.000000 -0.000002 1.000000
vn 0.000000 -0.000002 1.000000
vn 0.000000 0.000000 -1.000000
vn 0.000000 0.000000 -1.000000
vn 0.000000 -0.000001 1.000000
vn -0.000000 -0.000001 1.000000
vn 0.000000 0.000000 -1.000000
vn 0.000000 0.000000 -1.000000
vn -0.000001 0.000000 1.000000
vn -0.000001 0.000000 1.000000
vn 0.000000 0.000000 -1.000000
vn 0.000000 0.000000 -1.000000
vn 0.000000 0.000001 1.000000
vn 0.000000 0.000001 1.000000
vn 0.000000 0.000000 -1.000000
vn 0.000000 0.000000 -1.000000
vn -0.000003 0.000001 1.000000
vn -0.000003 0.000001 1.000000
vn 0.000000 0.000000 -1.000000
vn 0.000000 0.000000 -1.000000
vn -0.000003 -0.000000 1.000000
vn -0.000003 -0.000000 1.000000
vn 0.000000 0.000000 -1.000000
vn 0.000000 0.000000 -1.000000
vn 0.000000 -0.000000 1.000000
vn 0.000000 -0.000000 1.000000
vn 0.000000 0.000000 -1.000000
vn 0.000000 0.000000 -1.000000
vn 0.000001 0.000002 1.000000
vn 0.000001 0.000002 1.000000
vn 0.000000 0.000000 -1.000000
vn 0.000000 0.000000 -1.000000
vn 0.000002 0.000003 1.000000
vn 0.000002 0.000003 1.000000
vn 0.000000 0.000000 -1.000000
vn 0.000000 0.000000 -1.000000
vn 0.000001 0.000002 1.000000
vn 0.000001 0.000002 1.000000
vn 0.000000 0.000000 -1.000000
vn 0.000000 0.000000 -1.000000
vn 0.000000 0.000000 1.000000
vn 0.000000 0.000000 1.000000
vn 0.000000 0.000000 -1.000000
vn 0.000000 0.000000 -1.000000
vn 0.000001 0.000000 1.000000
vn 0.000001 0.000000 1.000000
vn 0.000000 0.000000 -1.000000
vn 0.000000 0.000000 -1.000000
vn 0.000001 0.000001 1.000000
vn 0.000001 0.000001 1.000000
vn 0.000000 0.000000 -1.000000
vn 0.000000 0.000000 -1.000000
vn -0.000003 0.000002 1.000000
vn -0.000003 0.000002 1.000000
vn 0.000000 0.000000 -1.000000
vn 0.000000 0.000000 -1.000000
vn -0.000003 -0.000000 1.000000
vn -0.000003 -0.000000 1.000000
vn 0.000000 0.000000 -1.000000
vn 0.000000 0.000000 -1.000000
vn 0.000003 -0.000000 1.000000
vn 0.000003 -0.000000 1.000000
s 1
g pCylinder37
usemtl blinn4SG
f 41/85/1 44/88/2 43/87/3 42/86/4
f 42/86/4 43/87/3 46/90/5 45/89/6
f 45/89/6 46/90/5 48/92/7 47/91/8
f 47/91/8 48/92/7 50/94/9 49/93/10
f 49/93/10 50/94/9 52/96/11 51/95/12
f 51/95/12 52/96/11 54/98/13 53/97/14
f 53/97/14 54/98/13 56/100/15 55/99/16
f 55/99/16 56/100/15 58/102/17 57/101/18
f 57/101/18 58/102/17 60/104/19 59/103/20
f 59/103/20 60/104/19 62/106/21 61/105/22
f 61/105/22 62/106/21 64/108/23 63/107/24
f 63/107/24 64/108/23 66/110/25 65/109/26
f 65/109/26 66/110/25 68/112/27 67/111/28
f 67/111/28 68/112/27 70/114/29 69/113/30
f 69/113/30 70/114/29 72/116/31 71/115/32
f 71/115/32 72/116/31 74/118/33 73/117/34
f 73/117/34 74/118/33 76/120/35 75/119/36
f 75/119/36 76/120/35 78/122/37 77/121/38
f 77/121/38 78/122/37 80/124/39 79/123/40
f 79/123/40 80/124/39 44/126/2 41/125/1
s 2
f 1/43/41 2/44/42 22/45/43 21/46/44
f 2/44/42 3/47/45 23/48/46 22/45/43
f 3/47/45 4/49/47 24/50/48 23/48/46
f 4/49/47 5/51/49 25/52/50 24/50/48
f 5/51/49 6/53/51 26/54/52 25/52/50
f 6/53/51 7/55/53 27/56/54 26/54/52
f 7/55/53 8/57/55 28/58/56 27/56/54
f 8/57/55 9/59/57 29/60/58 28/58/56
f 9/59/57 10/61/59 30/62/60 29/60/58
f 10/61/59 11/63/61 31/64/62 30/62/60
f 11/63/61 12/65/63 32/66/64 31/64/62
f 12/65/63 13/67/65 33/68/66 32/66/64
f 13/67/65 14/69/67 34/70/68 33/68/66
f 14/69/67 15/71/69 35/72/70 34/70/68
f 15/71/69 16/73/71 36/74/72 35/72/70
f 16/73/71 17/75/73 37/76/74 36/74/72
f 17/75/73 18/77/75 38/78/76 37/76/74
f 18/77/75 19/79/77 39/80/78 38/78/76
f 19/79/77 20/81/79 40/82/80 39/80/78
f 20/81/79 1/83/41 21/84/44 40/82/80
s 3
f 1/1/81 41/85/82 42/86/83 2/2/84
s 4
f 22/23/85 43/87/86 44/88/87 21/22/88
s 3
f 2/2/84 42/86/83 45/89/89 3/3/90
s 4
f 23/24/91 46/90/92 43/87/86 22/23/85
s 3
f 3/3/90 45/89/89 47/91/93 4/4/94
s 4
f 24/25/95 48/92/96 46/90/92 23/24/91
s 3
f 4/4/94 47/91/93 49/93/97 5/5/98
s 4
f 25/26/99 50/94/100 48/92/96 24/25/95
s 3
f 5/5/98 49/93/97 51/95/101 6/6/102
s 4
f 26/27/103 52/96/104 50/94/100 25/26/99
s 3
f 6/6/102 51/95/101 53/97/105 7/7/106
s 4
f 27/28/107 54/98/108 52/96/104 26/27/103
s 3
f 7/7/106 53/97/105 55/99/109 8/8/110
s 4
f 28/29/111 56/100/112 54/98/108 27/28/107
s 3
f 8/8/110 55/99/109 57/101/113 9/9/114
s 4
f 29/30/115 58/102/116 56/100/112 28/29/111
s 3
f 9/9/114 57/101/113 59/103/117 10/10/118
s 4
f 30/31/119 60/104/120 58/102/116 29/30/115
s 3
f 10/10/118 59/103/117 61/105/121 11/11/122
s 4
f 31/32/123 62/106/124 60/104/120 30/31/119
s 3
f 11/11/122 61/105/121 63/107/125 12/12/126
s 4
f 32/33/127 64/108/128 62/106/124 31/32/123
s 3
f 12/12/126 63/107/125 65/109/129 13/13/130
s 4
f 33/34/131 66/110/132 64/108/128 32/33/127
s 3
f 13/13/130 65/109/129 67/111/133 14/14/134
s 4
f 34/35/135 68/112/136 66/110/132 33/34/131
s 3
f 14/14/134 67/111/133 69/113/137 15/15/138
s 4
f 35/36/139 70/114/140 68/112/136 34/35/135
s 3
f 15/15/138 69/113/137 71/115/141 16/16/142
s 4
f 36/37/143 72/116/144 70/114/140 35/36/139
s 3
f 16/16/142 71/115/141 73/117/145 17/17/146
s 4
f 37/38/147 74/118/148 72/116/144 36/37/143
s 3
f 17/17/146 73/117/145 75/119/149 18/18/150
s 4
f 38/39/151 76/120/152 74/118/148 37/38/147
s 3
f 18/18/150 75/119/149 77/121/153 19/19/154
s 4
f 39/40/155 78/122/156 76/120/152 38/39/151
s 3
f 19/19/154 77/121/153 79/123/157 20/20/158
s 4
f 40/41/159 80/124/160 78/122/156 39/40/155
s 3
f 20/20/158 79/123/157 41/125/82 1/21/81
s 4
f 21/42/88 44/126/87 80/124/160 40/41/159
